<svg width="28" height="28" viewBox="0 0 28 28" fill="none" xmlns="http://www.w3.org/2000/svg">
<path fill-rule="evenodd" clip-rule="evenodd" d="M8.34146 6.00006C7.51304 6.00006 6.84146 6.67163 6.84146 7.50006C6.84146 8.32849 7.51304 9.00006 8.34146 9.00006H18.7578V18.4234C18.7578 19.2518 19.4294 19.9234 20.2578 19.9234C21.0863 19.9234 21.7578 19.2518 21.7578 18.4234V8.50006C21.7578 7.11935 20.6386 6.00006 19.2578 6.00006H8.34146ZM4 10.9147H15.122C16.2265 10.9147 17.122 11.8101 17.122 12.9147V24.0366C17.122 25.1412 16.2265 26.0366 15.122 26.0366H4C2.89543 26.0366 2 25.1412 2 24.0366V12.9147C2 11.8101 2.89543 10.9147 4 10.9147Z" fill="#6A6A6A"/>
<path d="M24.5 6.5C22.8431 6.5 21.5 5.15685 21.5 3.5C21.5 1.84315 22.8431 0.5 24.5 0.5C26.1569 0.5 27.5 1.84315 27.5 3.5C27.5 5.15686 26.1569 6.5 24.5 6.5Z" fill="#00D1FF" stroke="#1B1B1B"/>
</svg>
